<svg width="1000" height="1000" viewBox="0 0 1000 1000" fill="none" xmlns="http://www.w3.org/2000/svg">
<path d="M0 0H1000V1000H0V0Z" fill="white"/>
<mask id="mask0_2_126" style="mask-type:alpha" maskUnits="userSpaceOnUse" x="150" y="150" width="700" height="700">
<path d="M850 500C850 693.3 693.3 850 500 850C306.7 850 150 693.3 150 500C150 306.7 306.7 150 500 150C693.3 150 850 306.7 850 500Z" fill="#D9D9D9"/>
</mask>
<g mask="url(#mask0_2_126)">
<path d="M850 500C850 693.3 693.3 850 500 850C306.7 850 150 693.3 150 500C150 306.7 306.7 150 500 150C693.3 150 850 306.7 850 500Z" fill="#A6E1FF"/>
<path d="M965 500C965 693.3 808.3 850 615 850C421.7 850 265 693.3 265 500C265 306.7 421.7 150 615 150C808.3 150 965 306.7 965 500Z" fill="white"/>
<path d="M1002 500C1002 693.3 845.3 850 652 850C458.7 850 302 693.3 302 500C302 306.7 458.7 150 652 150C845.3 150 1002 306.7 1002 500Z" fill="#A6E1FF"/>
<path d="M1032 500C1032 693.3 875.3 850 682 850C488.7 850 332 693.3 332 500C332 306.7 488.7 150 682 150C875.3 150 1032 306.7 1032 500Z" fill="white"/>
<path d="M1056 500C1056 693.3 899.3 850 706 850C512.7 850 356 693.3 356 500C356 306.7 512.7 150 706 150C899.3 150 1056 306.7 1056 500Z" fill="#A6E1FF"/>
<path d="M209 495H905L905 515H209L187 505L209 495Z" fill="white"/>
</g>
</svg>
